<svg xmlns="http://www.w3.org/2000/svg" xmlns:svg="http://www.w3.org/2000/svg" xmlns:xlink="http://www.w3.org/1999/xlink" version="1.0" height="1260pt" width="750.73pt" viewBox="604.27 87 758.73 1266" ><defs><style type="text/css">
            @font-face {
                font-family: 'noto_regular';
                src: url('https://app.creately.com/diagram/assets/fonts/noto/noto-regular.woff') format('woff'),
                     url('https://app.creately.com/diagram/assets/fonts/noto/noto-regular.woff2') format('woff2');
                font-weight: normal;
                font-style: normal;
            }
        p {
            margin: 0;
        }
        </style></defs><defs><style>
            span{ display: inline-block; }
        </style></defs><g id="4dKUY4RLqRP"><g transform="translate(640 90)"><path d="M 30,60 L 30,60 L 30.000000000000004,60 A 30 30 0 0 1 0 30.000000000000004 L 0,30 L 0,30.000000000000004 A 30 30 0 0 1 30.000000000000004 0 L 90,0 L 90,0 L 90,0 A 30 30 0 0 1 120 30 L 120,30 L 120,30 A 30 30 0 0 1 90 60 L 30,60 Z" fill="rgb(131,196,220)" stroke="#2F8CAE" stroke-width="2" stroke-linecap="round" stroke-linejoin="round"/></g><g transform="translate(664.005, 101.995) rotate(0, 35.995, 18.005)" width="71.99" height="36.01"><text text-decoration="none" x="3.9949999999999974" fill="#ffffff" font-size="10pt" font-family="noto_regular"  y="12">Waiting&#160;</text><text text-decoration="none" x="49.995" fill="#ffffff" font-size="10pt" font-family="noto_regular"  y="12">For&#160;</text><text text-decoration="none" x="4.994999999999997" fill="#ffffff" font-size="10pt" font-family="noto_regular"  y="31">Customers</text><text text-decoration="none" x="66.995" fill="#4b4b4b" font-size="10pt" font-family="noto_regular"  y="31"></text></g></g><g id="aHqyegEfLqi"><g transform="translate(640 200)"><rect x="0" y="0" width="120" height="60" fill="rgb(131,196,220)" stroke="#2F8CAE" stroke-width="2" stroke-linecap="round" stroke-linejoin="round"/></g><g transform="translate(652.89, 211.995) rotate(0, 47.11, 18.005)" width="94.22" height="36.01"><text text-decoration="none" x="4.609999999999999" fill="#ffffff" font-size="10pt" font-family="noto_regular"  y="12">Welcoming&#160;</text><text text-decoration="none" x="71.61" fill="#ffffff" font-size="10pt" font-family="noto_regular"  y="12">the&#160;</text><text text-decoration="none" x="16.11" fill="#ffffff" font-size="10pt" font-family="noto_regular"  y="31">Customers</text><text text-decoration="none" x="78.11" fill="#4b4b4b" font-size="10pt" font-family="noto_regular"  y="31"></text></g></g><g id="hkHYgbcRnt2"><g><path d="M 700,150 L 700,200" fill="none" stroke="#7E7E7E" stroke-width="2" stroke-linecap="round" stroke-linejoin="round"/><path d="M 700,200 L 705.75,191.30434782608697 L 694.25,191.30434782608697 Z" fill="rgb(126,126,126)" stroke="#7E7E7E" stroke-width="2" stroke-linecap="round" stroke-linejoin="round"/></g></g><g id="jPGSzbspQK3"><g transform="translate(640 320)"><rect x="0" y="0" width="120" height="60" fill="rgb(131,196,220)" stroke="#2F8CAE" stroke-width="2" stroke-linecap="round" stroke-linejoin="round" stroke-dasharray="0 0"/></g><g transform="translate(657.925, 331.995) rotate(0, 42.075, 18.005)" width="84.15" height="36.01"><text text-decoration="none" x="4.075000000000003" fill="#ffffff" font-size="10pt" font-family="noto_regular"  y="12">Customers&#160;</text><text text-decoration="none" x="69.075" fill="#ffffff" font-size="10pt" font-family="noto_regular"  y="12">to&#160;</text><text text-decoration="none" x="14.075000000000003" fill="#ffffff" font-size="10pt" font-family="noto_regular"  y="31">be&#160;</text><text text-decoration="none" x="31.075000000000003" fill="#ffffff" font-size="10pt" font-family="noto_regular"  y="31">seated</text><text text-decoration="none" x="70.075" fill="#4b4b4b" font-size="10pt" font-family="noto_regular"  y="31"></text></g></g><g id="n0PawQtb7gS"><g><path d="M 700,260 L 700,320" fill="none" stroke="#7E7E7E" stroke-width="2" stroke-linecap="round" stroke-linejoin="round"/><path d="M 700,320 L 705.75,311.30434782608694 L 694.25,311.30434782608694 Z" fill="rgb(126,126,126)" stroke="#7E7E7E" stroke-width="2" stroke-linecap="round" stroke-linejoin="round"/></g></g><g id="KNSsWX59zXw"><g transform="translate(640 460)"><rect x="0" y="0" width="120" height="60" fill="rgb(131,196,220)" stroke="#2F8CAE" stroke-width="2" stroke-linecap="round" stroke-linejoin="round" stroke-dasharray="0 0"/></g><g transform="translate(655.855, 471.995) rotate(0, 44.145, 18.005)" width="88.29" height="36.01"><text text-decoration="none" x="4.645000000000003" fill="#ffffff" font-size="10pt" font-family="noto_regular"  y="12">Waiter&#160;</text><text text-decoration="none" x="44.645" fill="#ffffff" font-size="10pt" font-family="noto_regular"  y="12">Arrives&#160;</text><text text-decoration="none" x="5.145000000000003" fill="#ffffff" font-size="10pt" font-family="noto_regular"  y="31">to&#160;</text><text text-decoration="none" x="19.145000000000003" fill="#ffffff" font-size="10pt" font-family="noto_regular"  y="31">take&#160;</text><text text-decoration="none" x="47.145" fill="#ffffff" font-size="10pt" font-family="noto_regular"  y="31">orders</text><text text-decoration="none" x="83.14500000000001" fill="#4b4b4b" font-size="10pt" font-family="noto_regular"  y="31"></text></g></g><g id="Ex97QwljNfU"><g><path d="M 700,380 L 700,460" fill="none" stroke="#7E7E7E" stroke-width="2" stroke-linecap="round" stroke-linejoin="round"/><path d="M 700,460 L 705.75,451.30434782608694 L 694.25,451.30434782608694 Z" fill="rgb(126,126,126)" stroke="#7E7E7E" stroke-width="2" stroke-linecap="round" stroke-linejoin="round"/></g></g><g id="fbmpYj8y17U"><g transform="translate(640 580)"><rect x="0" y="0" width="120" height="60" fill="rgb(131,196,220)" stroke="#2F8CAE" stroke-width="2" stroke-linecap="round" stroke-linejoin="round" stroke-dasharray="0 0"/></g><g transform="translate(654.535, 591.995) rotate(0, 45.465, 18.005)" width="90.93" height="36.01"><text text-decoration="none" x="5.465000000000003" fill="#ffffff" font-size="10pt" font-family="noto_regular"  y="12">Deliver&#160;</text><text text-decoration="none" x="47.465" fill="#ffffff" font-size="10pt" font-family="noto_regular"  y="12">Orders&#160;</text><text text-decoration="none" x="6.465000000000003" fill="#ffffff" font-size="10pt" font-family="noto_regular"  y="31">to&#160;</text><text text-decoration="none" x="20.465000000000003" fill="#ffffff" font-size="10pt" font-family="noto_regular"  y="31">the&#160;</text><text text-decoration="none" x="41.465" fill="#ffffff" font-size="10pt" font-family="noto_regular"  y="31">Kitchen</text><text text-decoration="none" x="84.465" fill="#4b4b4b" font-size="10pt" font-family="noto_regular"  y="31"></text></g></g><g id="a0sbIOhaOmc"><g><path d="M 700,520 L 700,580" fill="none" stroke="#7E7E7E" stroke-width="2" stroke-linecap="round" stroke-linejoin="round"/><path d="M 700,580 L 705.75,571.304347826087 L 694.25,571.304347826087 Z" fill="rgb(126,126,126)" stroke="#7E7E7E" stroke-width="2" stroke-linecap="round" stroke-linejoin="round"/></g></g><g id="xyqBDrsDZGg"><g transform="translate(900 430)"><path d="M 60,0 L 0,50.000000000000036 L 60,100.00000000000007 L 120,50.000000000000036 L 60,0 Z" fill="rgb(131,196,220)" stroke="#2F8CAE" stroke-width="2" stroke-linecap="round" stroke-linejoin="round"/></g><g transform="translate(916.475, 461.99500000000006) rotate(0, 43.525, 18.005)" width="87.05" height="36.01"><text text-decoration="none" x="3.5249999999999986" fill="#ffffff" font-size="10pt" font-family="noto_regular"  y="12">Do&#160;</text><text text-decoration="none" x="22.525" fill="#ffffff" font-size="10pt" font-family="noto_regular"  y="12">customers&#160;</text><text text-decoration="none" x="11.524999999999999" fill="#ffffff" font-size="10pt" font-family="noto_regular"  y="31">neef&#160;</text><text text-decoration="none" x="40.525" fill="#ffffff" font-size="10pt" font-family="noto_regular"  y="31">drinks</text><text text-decoration="none" x="75.525" fill="#4b4b4b" font-size="10pt" font-family="noto_regular"  y="31"></text></g></g><g id="ujUv8t0rd6N"><g><path d="M 760,610 L 820,610 Q 830,610 830,600 L 830,545 L 830,490.00000000000006 Q 830,480.00000000000006 840,480.00000000000006 L 900,480" fill="none" stroke="#7E7E7E" stroke-width="2" stroke-linecap="round" stroke-linejoin="round"/><path d="M 900,480 L 891.304347826087,474.25 L 891.304347826087,485.75 Z" fill="rgb(126,126,126)" stroke="#7E7E7E" stroke-width="2" stroke-linecap="round" stroke-linejoin="round"/></g></g><g id="dczQ7SJ5Kma"><g transform="translate(1050 320)"><rect x="0" y="0" width="120" height="60" fill="rgb(131,196,220)" stroke="#2F8CAE" stroke-width="2" stroke-linecap="round" stroke-linejoin="round" stroke-dasharray="0 0"/></g><g transform="translate(1077.465, 331.995) rotate(0, 32.535, 18.005)" width="65.07" height="36.01"><text text-decoration="none" x="2.5349999999999966" fill="#ffffff" font-size="10pt" font-family="noto_regular"  y="12">Serves&#160;</text><text text-decoration="none" x="44.535" fill="#ffffff" font-size="10pt" font-family="noto_regular"  y="12">the&#160;</text><text text-decoration="none" x="17.534999999999997" fill="#ffffff" font-size="10pt" font-family="noto_regular"  y="31">Drink</text><text text-decoration="none" x="47.535" fill="#4b4b4b" font-size="10pt" font-family="noto_regular"  y="31"></text></g></g><g id="Bob4NOapV0s"><mask id="32e9e" x="946" y="336" width="118" height="108" maskUnits="userSpaceOnUse"><rect x="946" y="336" width="118" height="108" fill="white" /><rect x="951.27" y="338" width="27.46" height="24" fill="black" /></mask><g mask="url(#32e9e)"><path d="M 960,430 L 960,360 Q 960,350 970,350 L 1050,350" fill="none" stroke="#7E7E7E" stroke-width="2" stroke-linecap="round" stroke-linejoin="round"/><path d="M 1050,350 L 1041.304347826087,344.25 L 1041.304347826087,355.75 Z" fill="rgb(126,126,126)" stroke="#7E7E7E" stroke-width="2" stroke-linecap="round" stroke-linejoin="round"/></g><g transform="translate(954.27, 341)" width="21.46" height="18"><text text-decoration="none" x="0" fill="#4b4b4b" font-size="10pt" font-family="noto_regular"  y="15">Yes</text><text text-decoration="none" x="22" fill="#4b4b4b" font-size="10pt" font-family="noto_regular"  y="15"></text></g></g><g id="H6Dgoa3qrua"><mask id="b01aa" x="1006" y="466" width="288" height="208" maskUnits="userSpaceOnUse"><rect x="1006" y="466" width="288" height="208" fill="white" /><rect x="1227.895" y="468.00000000000006" width="24.21" height="24" fill="black" /></mask><g mask="url(#b01aa)"><path d="M 1020,480 L 1270,480.00000000000006 Q 1280,480.00000000000006 1280,490.00000000000006 L 1280,660" fill="none" stroke="#7E7E7E" stroke-width="2" stroke-linecap="round" stroke-linejoin="round"/><path d="M 1280,660 L 1285.75,651.304347826087 L 1274.25,651.304347826087 Z" fill="rgb(126,126,126)" stroke="#7E7E7E" stroke-width="2" stroke-linecap="round" stroke-linejoin="round"/></g><g transform="translate(1230.895, 471.00000000000006)" width="18.21" height="18"><text text-decoration="none" x="1.1050000000000004" fill="#4b4b4b" font-size="10pt" font-family="noto_regular"  y="15">No</text><text text-decoration="none" x="17.105" fill="#4b4b4b" font-size="10pt" font-family="noto_regular"  y="15"></text></g></g><g id="sR5mot2ktGL"><g transform="translate(1220 660)"><rect x="0" y="0" width="120" height="80" fill="rgb(131,196,220)" stroke="#2F8CAE" stroke-width="2" stroke-linecap="round" stroke-linejoin="round" stroke-dasharray="0 0"/></g><g transform="translate(1246.1, 672.995) rotate(0, 33.9, 27.005)" width="67.8" height="54.01"><text text-decoration="none" x="7.399999999999999" fill="#ffffff" font-size="10pt" font-family="noto_regular"  y="12">Check&#160;</text><text text-decoration="none" x="46.4" fill="#ffffff" font-size="10pt" font-family="noto_regular"  y="12">on&#160;</text><text text-decoration="none" x="2.8999999999999986" fill="#ffffff" font-size="10pt" font-family="noto_regular"  y="28">Customers&#160;</text><text text-decoration="none" x="16.4" fill="#ffffff" font-size="10pt" font-family="noto_regular"  y="47">needs</text><text text-decoration="none" x="51.4" fill="#4b4b4b" font-size="10pt" font-family="noto_regular"  y="47"></text></g></g><g id="pSmRrw6dJ7o"><g transform="translate(1220 790)"><path d="M 60,0 L 0,40 L 60,80 L 120,40 L 60,0 Z" fill="rgb(131,196,220)" stroke="#2F8CAE" stroke-width="2" stroke-linecap="round" stroke-linejoin="round" stroke-dasharray="0 0"/></g><g transform="translate(1251.99, 811.995) rotate(0, 28.01, 18.005)" width="56.02" height="36.01"><text text-decoration="none" x="11.510000000000002" fill="#ffffff" font-size="10pt" font-family="noto_regular"  y="12">Is&#160;</text><text text-decoration="none" x="25.51" fill="#ffffff" font-size="10pt" font-family="noto_regular"  y="12">Food&#160;</text><text text-decoration="none" x="7.510000000000002" fill="#ffffff" font-size="10pt" font-family="noto_regular"  y="31">Ready?</text><text text-decoration="none" x="48.510000000000005" fill="#4b4b4b" font-size="10pt" font-family="noto_regular"  y="31"></text></g></g><g id="Rbi6MVJVYzp"><g><path d="M 1280,740 L 1280,790" fill="none" stroke="#7E7E7E" stroke-width="2" stroke-linecap="round" stroke-linejoin="round"/><path d="M 1280,790 L 1285.75,781.304347826087 L 1274.25,781.304347826087 Z" fill="rgb(126,126,126)" stroke="#7E7E7E" stroke-width="2" stroke-linecap="round" stroke-linejoin="round"/></g></g><g id="76xJntrRbqd"><mask id="711e7" x="946" y="516" width="288" height="328" maskUnits="userSpaceOnUse"><rect x="946" y="516" width="288" height="328" fill="white" /><rect x="947.895" y="798" width="24.21" height="24" fill="black" /></mask><g mask="url(#711e7)"><path d="M 1220,830 L 970,830 Q 960,830 960,820 L 960,530" fill="none" stroke="#7E7E7E" stroke-width="2" stroke-linecap="round" stroke-linejoin="round"/><path d="M 960,530 L 954.25,538.695652173913 L 965.75,538.695652173913 Z" fill="rgb(126,126,126)" stroke="#7E7E7E" stroke-width="2" stroke-linecap="round" stroke-linejoin="round"/></g><g transform="translate(950.895, 801)" width="18.21" height="18"><text text-decoration="none" x="1.1050000000000004" fill="#4b4b4b" font-size="10pt" font-family="noto_regular"  y="15">No</text><text text-decoration="none" x="17.105" fill="#4b4b4b" font-size="10pt" font-family="noto_regular"  y="15"></text></g></g><g id="yxEvpG2iDZP"><g transform="translate(1220 990)"><rect x="0" y="0" width="120" height="60" fill="rgb(131,196,220)" stroke="#2F8CAE" stroke-width="2" stroke-linecap="round" stroke-linejoin="round" stroke-dasharray="0 0"/></g><g transform="translate(1243.295, 1011) rotate(0, 36.705, 9)" width="73.41" height="18"><text text-decoration="none" x="2.7049999999999983" fill="#ffffff" font-size="10pt" font-family="noto_regular"  y="15">Serves&#160;</text><text text-decoration="none" x="44.705" fill="#ffffff" font-size="10pt" font-family="noto_regular"  y="15">food</text><text text-decoration="none" x="70.705" fill="#4b4b4b" font-size="10pt" font-family="noto_regular"  y="15"></text></g></g><g id="jz4xT4obn09"><mask id="e40a8" x="1266" y="856" width="28" height="148" maskUnits="userSpaceOnUse"><rect x="1266" y="856" width="28" height="148" fill="white" /><rect x="1266.27" y="918" width="27.46" height="24" fill="black" /></mask><g mask="url(#e40a8)"><path d="M 1280,870 L 1280,990" fill="none" stroke="#7E7E7E" stroke-width="2" stroke-linecap="round" stroke-linejoin="round"/><path d="M 1280,990 L 1285.75,981.304347826087 L 1274.25,981.304347826087 Z" fill="rgb(126,126,126)" stroke="#7E7E7E" stroke-width="2" stroke-linecap="round" stroke-linejoin="round"/></g><g transform="translate(1269.27, 921)" width="21.46" height="18"><text text-decoration="none" x="0" fill="#4b4b4b" font-size="10pt" font-family="noto_regular"  y="15">Yes</text><text text-decoration="none" x="22" fill="#4b4b4b" font-size="10pt" font-family="noto_regular"  y="15"></text></g></g><g id="TupGusSh7nQ"><g transform="translate(950 910)"><path d="M 60,0 L 0,50.00000000000004 L 60,100.00000000000009 L 120,50.00000000000004 L 60,0 Z" fill="rgb(131,196,220)" stroke="#2F8CAE" stroke-width="2" stroke-linecap="round" stroke-linejoin="round" stroke-dasharray="0 0"/></g><g transform="translate(969.67, 941.995) rotate(0, 40.33, 18.005)" width="80.66" height="36.01"><text text-decoration="none" x="3.8299999999999983" fill="#ffffff" font-size="10pt" font-family="noto_regular"  y="12">Do&#160;</text><text text-decoration="none" x="22.83" fill="#ffffff" font-size="10pt" font-family="noto_regular"  y="12">customer&#160;</text><text text-decoration="none" x="9.829999999999998" fill="#ffffff" font-size="10pt" font-family="noto_regular"  y="31">order&#160;</text><text text-decoration="none" x="41.83" fill="#ffffff" font-size="10pt" font-family="noto_regular"  y="31">more</text><text text-decoration="none" x="70.83" fill="#4b4b4b" font-size="10pt" font-family="noto_regular"  y="31"></text></g></g><g id="mAIFbVyK3nE"><g><path d="M 1220,1020 L 1155,1020 Q 1145,1020 1145,1010 L 1145,990 L 1145,970 Q 1145,960 1135,960 L 1070,960" fill="none" stroke="#7E7E7E" stroke-width="2" stroke-linecap="round" stroke-linejoin="round"/><path d="M 1070,960 L 1078.695652173913,965.75 L 1078.695652173913,954.25 Z" fill="rgb(126,126,126)" stroke="#7E7E7E" stroke-width="2" stroke-linecap="round" stroke-linejoin="round"/></g></g><g id="emaoQX4pueu"><g transform="translate(950 1130)"><rect x="0" y="0" width="120" height="60" fill="rgb(131,196,220)" stroke="#2F8CAE" stroke-width="2" stroke-linecap="round" stroke-linejoin="round" stroke-dasharray="0 0"/></g><g transform="translate(961.85, 1151) rotate(0, 48.15, 9)" width="96.3" height="18"><text text-decoration="none" x="5.649999999999999" fill="#ffffff" font-size="10pt" font-family="noto_regular"  y="15">Prepare&#160;</text><text text-decoration="none" x="52.65" fill="#ffffff" font-size="10pt" font-family="noto_regular"  y="15">the&#160;</text><text text-decoration="none" x="73.65" fill="#ffffff" font-size="10pt" font-family="noto_regular"  y="15">Bill</text><text text-decoration="none" x="90.65" fill="#4b4b4b" font-size="10pt" font-family="noto_regular"  y="15"></text></g></g><g id="qXo5steLizW"><mask id="aaade" x="996" y="996" width="28" height="148" maskUnits="userSpaceOnUse"><rect x="996" y="996" width="28" height="148" fill="white" /><rect x="997.895" y="1058" width="24.21" height="24" fill="black" /></mask><g mask="url(#aaade)"><path d="M 1010,1010 L 1010,1130" fill="none" stroke="#7E7E7E" stroke-width="2" stroke-linecap="round" stroke-linejoin="round"/><path d="M 1010,1130 L 1015.75,1121.304347826087 L 1004.25,1121.304347826087 Z" fill="rgb(126,126,126)" stroke="#7E7E7E" stroke-width="2" stroke-linecap="round" stroke-linejoin="round"/></g><g transform="translate(1000.895, 1061)" width="18.21" height="18"><text text-decoration="none" x="1.1050000000000004" fill="#4b4b4b" font-size="10pt" font-family="noto_regular"  y="15">No</text><text text-decoration="none" x="17.105" fill="#4b4b4b" font-size="10pt" font-family="noto_regular"  y="15"></text></g></g><g id="D1rbdzQ7toL"><mask id="c2bdc" x="606" y="476" width="418" height="448" maskUnits="userSpaceOnUse"><rect x="606" y="476" width="418" height="448" fill="white" /><rect x="606.27" y="873" width="27.46" height="24" fill="black" /></mask><g mask="url(#c2bdc)"><path d="M 1010,910 L 1010,900 Q 1010,890 1000,890 L 815,890 L 630,890 Q 620,890 620,880 L 620,690 L 620,500 Q 620,490 630,490 L 640,490" fill="none" stroke="#7E7E7E" stroke-width="2" stroke-linecap="round" stroke-linejoin="round"/><path d="M 640,490 L 631.304347826087,484.25 L 631.304347826087,495.75 Z" fill="rgb(126,126,126)" stroke="#7E7E7E" stroke-width="2" stroke-linecap="round" stroke-linejoin="round"/></g><g transform="translate(609.27, 876)" width="21.46" height="18"><text text-decoration="none" x="0" fill="#4b4b4b" font-size="10pt" font-family="noto_regular"  y="15">Yes</text><text text-decoration="none" x="22" fill="#4b4b4b" font-size="10pt" font-family="noto_regular"  y="15"></text></g></g><g id="PgozrYhoHXq"><g><path d="M 1170,350 L 1180,350 Q 1190,350 1190,360 L 1190,495 L 1190,630 Q 1190,640 1200,640 L 1275,640 L 1350,640 Q 1360,640 1360,650 L 1360,684 L 1360,717.0625000000001 Q 1360,727.0625000000001 1350.0000488277674,727.0312501525868 L 1340,727" fill="none" stroke="#7E7E7E" stroke-width="2" stroke-linecap="round" stroke-linejoin="round"/><path d="M 1340,727 L 1348.695652173913,732.75 L 1348.695652173913,721.25 Z" fill="rgb(126,126,126)" stroke="#7E7E7E" stroke-width="2" stroke-linecap="round" stroke-linejoin="round"/></g></g><g id="0iq3LnmCNJf"><g transform="translate(950 1270)"><path d="M 40,80 L 40,80 L 40,80 A 40 40 0 0 1 0 40.00000000000001 L 0,40 L 0,40.00000000000001 A 40 40 0 0 1 40 0 L 89.99999999993054,0 L 89.99999999993054,0 L 89.99999999993054,0 A 40 40 0 0 1 129.99999999993054 40 L 129.99999999993054,40 L 129.99999999993054,40 A 40 40 0 0 1 89.99999999993054 80 L 40,80 Z" fill="rgb(131,196,220)" stroke="#2F8CAE" stroke-width="2" stroke-linecap="round" stroke-linejoin="round"/></g><g transform="translate(971.4749999999652, 1282.995) rotate(0, 43.525, 27.005)" width="87.05" height="54.01"><text text-decoration="none" x="4.024999999999999" fill="#ffffff" font-size="10pt" font-family="noto_regular"  y="12">Serves&#160;</text><text text-decoration="none" x="46.025" fill="#ffffff" font-size="10pt" font-family="noto_regular"  y="12">the&#160;</text><text text-decoration="none" x="67.025" fill="#ffffff" font-size="10pt" font-family="noto_regular"  y="12">bill&#160;</text><text text-decoration="none" x="8.524999999999999" fill="#ffffff" font-size="10pt" font-family="noto_regular"  y="28">and&#160;</text><text text-decoration="none" x="32.525" fill="#ffffff" font-size="10pt" font-family="noto_regular"  y="28">take&#160;</text><text text-decoration="none" x="60.525" fill="#ffffff" font-size="10pt" font-family="noto_regular"  y="28">the&#160;</text><text text-decoration="none" x="19.025" fill="#ffffff" font-size="10pt" font-family="noto_regular"  y="47">payment</text><text text-decoration="none" x="68.025" fill="#4b4b4b" font-size="10pt" font-family="noto_regular"  y="47"></text></g></g><g id="vNx53CTqjIn"><g><path d="M 1010,1190 L 1010,1220 Q 1010,1220 1010,1230 Q 1009.0483398610353,1239.0624889373983 1009.0468750190735,1239.999987792991 L 1009,1270" fill="none" stroke="#7E7E7E" stroke-width="2" stroke-linecap="round" stroke-linejoin="round"/><path d="M 1009,1270 L 1014.75,1261.304347826087 L 1003.25,1261.304347826087 Z" fill="rgb(126,126,126)" stroke="#7E7E7E" stroke-width="2" stroke-linecap="round" stroke-linejoin="round"/></g></g></svg>